<svg width="20" height="20" viewBox="0 0 20 20" fill="none" xmlns="http://www.w3.org/2000/svg">
<path d="M10.0004 15.1766C10.485 15.1766 10.8778 14.7838 10.8778 14.2993C10.8778 13.8147 10.485 13.4219 10.0004 13.4219C9.51586 13.4219 9.12305 13.8147 9.12305 14.2993C9.12305 14.7838 9.51586 15.1766 10.0004 15.1766Z" fill="white" fill-opacity="0.8"/>
<path d="M10 1.01562C5.03459 1.01562 1.01562 5.03392 1.01562 10C1.01562 14.9654 5.03392 18.9844 10 18.9844C14.9654 18.9844 18.9844 14.9661 18.9844 10C18.9844 5.03459 14.9661 1.01562 10 1.01562ZM10 17.5806C5.81044 17.5806 2.41943 14.1901 2.41943 10C2.41943 5.81044 5.80988 2.41943 10 2.41943C14.1896 2.41943 17.5806 5.80988 17.5806 10C17.5806 14.1896 14.1901 17.5806 10 17.5806Z" fill="white" fill-opacity="0.8"/>
<path d="M10 5.52539C8.45188 5.52539 7.19238 6.78489 7.19238 8.33301C7.19238 8.72067 7.50663 9.03491 7.89429 9.03491C8.28195 9.03491 8.59619 8.72067 8.59619 8.33301C8.59619 7.55895 9.22594 6.9292 10 6.9292C10.7741 6.9292 11.4038 7.55895 11.4038 8.33301C11.4038 9.10707 10.7741 9.73682 10 9.73682C9.61234 9.73682 9.2981 10.0511 9.2981 10.4387V12.1935C9.2981 12.5811 9.61234 12.8954 10 12.8954C10.3877 12.8954 10.7019 12.5811 10.7019 12.1935V11.0518C11.9115 10.7393 12.8076 9.63887 12.8076 8.33301C12.8076 6.78489 11.5481 5.52539 10 5.52539Z" fill="white" fill-opacity="0.8"/>
</svg>
