<svg width="80" height="80" viewBox="0 0 80 80" fill="none" xmlns="http://www.w3.org/2000/svg">
<mask id="mask0_3120_4433" style="mask-type:alpha" maskUnits="userSpaceOnUse" x="0" y="0" width="80" height="80">
<rect width="80" height="80" fill="#D9D9D9"/>
</mask>
<g mask="url(#mask0_3120_4433)">
<path d="M53.3327 36.6667C54.2771 36.6667 55.0688 36.3473 55.7077 35.7084C56.3466 35.0695 56.666 34.2779 56.666 33.3334C56.666 32.389 56.3466 31.5973 55.7077 30.9584C55.0688 30.3195 54.2771 30.0001 53.3327 30.0001C52.3882 30.0001 51.5966 30.3195 50.9577 30.9584C50.3188 31.5973 49.9993 32.389 49.9993 33.3334C49.9993 34.2779 50.3188 35.0695 50.9577 35.7084C51.5966 36.3473 52.3882 36.6667 53.3327 36.6667ZM26.666 30.0001H43.3327V23.3334H26.666V30.0001ZM14.9993 70.0001C13.1105 63.6667 11.2493 57.3473 9.41602 51.0417C7.58268 44.7362 6.66602 38.2779 6.66602 31.6667C6.66602 26.5556 8.44379 22.2223 11.9993 18.6667C15.5549 15.1112 19.8882 13.3334 24.9993 13.3334H41.666C43.2771 11.2223 45.2355 9.58341 47.541 8.41675C49.8466 7.25008 52.3327 6.66675 54.9993 6.66675C56.3882 6.66675 57.5688 7.15286 58.541 8.12508C59.5132 9.0973 59.9993 10.2779 59.9993 11.6667C59.9993 11.9445 59.8605 12.5834 59.5827 13.5834C59.3605 14.1945 59.1521 14.8195 58.9577 15.4584C58.7632 16.0973 58.6105 16.7501 58.4993 17.4167L66.0827 25.0001H73.3327V48.2501L63.916 51.3334L58.3327 70.0001H39.9993V63.3334H33.3327V70.0001H14.9993Z" fill="white" fill-opacity="0.3"/>
</g>
</svg>
